REM DIRINDEX 1\2,1\3,1\4,1\5
REM DIRNAME folder01,folder02,folder03,folder04,folder05
TITLE ""
FILE "137.mp3" MP3
  TRACK 01 AUDIO
    TITLE "0:"
    INDEX 01 00:00:00
  TRACK 02 AUDIO
    TITLE "2:cjc046_3606"
    INDEX 01 00:00:13
  TRACK 03 AUDIO
    TITLE "0:"
    INDEX 01 00:01:19
  TRACK 04 AUDIO
    TITLE "3:cjc046_3607"
    INDEX 01 00:01:40
  TRACK 05 AUDIO
    TITLE "0:"
    INDEX 01 00:03:25
  TRACK 06 AUDIO
    TITLE "4:cjc046_3608"
    INDEX 01 00:03:43
  TRACK 07 AUDIO
    TITLE "0:"
    INDEX 01 00:04:50
  TRACK 08 AUDIO
    TITLE "2:cjc046_3609"
    INDEX 01 00:05:59
  TRACK 09 AUDIO
    TITLE "0:"
    INDEX 01 00:06:67
  TRACK 10 AUDIO
    TITLE "3:cjc046_3610"
    INDEX 01 00:07:13
  TRACK 11 AUDIO
    TITLE "0:"
    INDEX 01 00:08:01
  TRACK 12 AUDIO
    TITLE "4:cjc046_3611"
    INDEX 01 00:08:19
  TRACK 13 AUDIO
    TITLE "0:"
    INDEX 01 00:09:26
  TRACK 14 AUDIO
    TITLE "2:cjc046_3612"
    INDEX 01 00:10:29
  TRACK 15 AUDIO
    TITLE "0:"
    INDEX 01 00:11:40
  TRACK 16 AUDIO
    TITLE "3:cjc046_3613"
    INDEX 01 00:11:54
  TRACK 17 AUDIO
    TITLE "0:"
    INDEX 01 00:12:65
  TRACK 18 AUDIO
    TITLE "4:cjc046_3614"
    INDEX 01 00:13:02
  TRACK 19 AUDIO
    TITLE "0:"
    INDEX 01 00:14:13
  TRACK 20 AUDIO
    TITLE "2:cjc046_3615"
    INDEX 01 00:15:15
  TRACK 21 AUDIO
    TITLE "0:"
    INDEX 01 00:16:26
  TRACK 22 AUDIO
    TITLE "3:cjc046_3616"
    INDEX 01 00:16:34
  TRACK 23 AUDIO
    TITLE "0:"
    INDEX 01 00:17:25
  TRACK 24 AUDIO
    TITLE "4:cjc046_3617"
    INDEX 01 00:17:41
  TRACK 25 AUDIO
    TITLE "0:"
    INDEX 01 00:18:50
  TRACK 26 AUDIO
    TITLE "2:cjc046_3618"
    INDEX 01 00:19:54
  TRACK 27 AUDIO
    TITLE "0:"
    INDEX 01 00:20:61
  TRACK 28 AUDIO
    TITLE "3:cjc046_3619"
    INDEX 01 00:21:08
  TRACK 29 AUDIO
    TITLE "0:"
    INDEX 01 00:22:05
  TRACK 30 AUDIO
    TITLE "4:cjc046_3620"
    INDEX 01 00:22:23
  TRACK 31 AUDIO
    TITLE "0:"
    INDEX 01 00:23:32
  TRACK 32 AUDIO
    TITLE "2:cjc046_3621"
    INDEX 01 00:24:39
  TRACK 33 AUDIO
    TITLE "0:"
    INDEX 01 00:25:64
  TRACK 34 AUDIO
    TITLE "3:cjc046_3622"
    INDEX 01 00:26:18
  TRACK 35 AUDIO
    TITLE "0:"
    INDEX 01 00:28:19
  TRACK 36 AUDIO
    TITLE "4:cjc046_3623"
    INDEX 01 00:28:33
  TRACK 37 AUDIO
    TITLE "0:"
    INDEX 01 00:29:58
  TRACK 38 AUDIO
    TITLE "2:cjc046_3624"
    INDEX 01 00:30:69
  TRACK 39 AUDIO
    TITLE "0:"
    INDEX 01 00:32:05
  TRACK 40 AUDIO
    TITLE "3:cjc046_3625"
    INDEX 01 00:32:27
  TRACK 41 AUDIO
    TITLE "0:"
    INDEX 01 00:33:46
  TRACK 42 AUDIO
    TITLE "4:cjc046_3626"
    INDEX 01 00:33:64
  TRACK 43 AUDIO
    TITLE "0:"
    INDEX 01 00:34:73
  TRACK 44 AUDIO
    TITLE "2:cjc046_3627"
    INDEX 01 00:36:09
  TRACK 45 AUDIO
    TITLE "0:"
    INDEX 01 00:37:34
  TRACK 46 AUDIO
    TITLE "3:cjc046_3628"
    INDEX 01 00:37:52
  TRACK 47 AUDIO
    TITLE "0:"
    INDEX 01 00:38:65
  TRACK 48 AUDIO
    TITLE "4:cjc046_3629"
    INDEX 01 00:39:07
  TRACK 49 AUDIO
    TITLE "0:"
    INDEX 01 00:40:34
  TRACK 50 AUDIO
    TITLE "2:cjc046_3630"
    INDEX 01 00:41:45
  TRACK 51 AUDIO
    TITLE "0:"
    INDEX 01 00:42:55
  TRACK 52 AUDIO
    TITLE "3:cjc046_3631"
    INDEX 01 00:42:74
  TRACK 53 AUDIO
    TITLE "0:"
    INDEX 01 00:43:64
  TRACK 54 AUDIO
    TITLE "4:cjc046_3632"
    INDEX 01 00:44:07
  TRACK 55 AUDIO
    TITLE "0:"
    INDEX 01 00:45:16
  TRACK 56 AUDIO
    TITLE "2:cjc046_3633"
    INDEX 01 00:46:27
  TRACK 57 AUDIO
    TITLE "0:"
    INDEX 01 00:47:34
  TRACK 58 AUDIO
    TITLE "3:cjc046_3634"
    INDEX 01 00:47:52
  TRACK 59 AUDIO
    TITLE "0:"
    INDEX 01 00:49:02
  TRACK 60 AUDIO
    TITLE "4:cjc046_3635"
    INDEX 01 00:49:14
  TRACK 61 AUDIO
    TITLE "0:"
    INDEX 01 00:50:23
  TRACK 62 AUDIO
    TITLE "2:cjc046_3636"
    INDEX 01 00:51:28
  TRACK 63 AUDIO
    TITLE "0:"
    INDEX 01 00:52:47
  TRACK 64 AUDIO
    TITLE "3:cjc046_3637"
    INDEX 01 00:52:69
  TRACK 65 AUDIO
    TITLE "0:"
    INDEX 01 00:54:23
  TRACK 66 AUDIO
    TITLE "4:cjc046_3638"
    INDEX 01 00:54:44
  TRACK 67 AUDIO
    TITLE "0:"
    INDEX 01 00:55:61
  TRACK 68 AUDIO
    TITLE "2:cjc046_3639"
    INDEX 01 00:56:72
  TRACK 69 AUDIO
    TITLE "0:"
    INDEX 01 00:58:18
  TRACK 70 AUDIO
    TITLE "3:cjc046_3640"
    INDEX 01 00:58:34
  TRACK 71 AUDIO
    TITLE "0:"
    INDEX 01 00:59:28
  TRACK 72 AUDIO
    TITLE "4:cjc046_3641"
    INDEX 01 00:59:45
  TRACK 73 AUDIO
    TITLE "0:"
    INDEX 01 01:00:64
  TRACK 74 AUDIO
    TITLE "2:cjc046_3642"
    INDEX 01 01:02:01
  TRACK 75 AUDIO
    TITLE "0:"
    INDEX 01 01:03:29
  TRACK 76 AUDIO
    TITLE "3:cjc046_3643"
    INDEX 01 01:03:51
  TRACK 77 AUDIO
    TITLE "0:"
    INDEX 01 01:05:52
  TRACK 78 AUDIO
    TITLE "4:cjc046_3644"
    INDEX 01 01:05:62
  TRACK 79 AUDIO
    TITLE "0:"
    INDEX 01 01:07:17
  TRACK 80 AUDIO
    TITLE "2:cjc046_3645"
    INDEX 01 01:08:25
  TRACK 81 AUDIO
    TITLE "0:"
    INDEX 01 01:09:28
  TRACK 82 AUDIO
    TITLE "3:cjc046_3646"
    INDEX 01 01:09:61
  TRACK 83 AUDIO
    TITLE "0:"
    INDEX 01 01:10:73
  TRACK 84 AUDIO
    TITLE "4:cjc046_3647"
    INDEX 01 01:11:05
  TRACK 85 AUDIO
    TITLE "0:"
    INDEX 01 01:12:07
